<?xml version="1.0" standalone="yes"?>
<svg xmlns="http://www.w3.org/2000/svg" width="350" height="350">
<path style="fill:#a991d5; stroke:none;" d="M73 0L73 11L316 11L316 125C319.631 123.679 325.675 121.654 327.972 118.363C329.542 116.114 328.999 112.584 329 110L329 90L329 0L73 0M46 23L46 35L288 35L288 141C292.136 139.218 298.544 136.683 300.972 132.671C302.467 130.202 301.999 126.757 302 124L302 105L302 23L46 23M21 45L21 180L21 215C21 218.547 19.7208 225.301 22.0278 228.272C24.4548 231.399 31.4122 231.886 35 232.909C46.1267 236.081 56.6714 242.987 68 245L68 167L111 167L111 252C111 258.487 108.69 278.527 120.995 276.168C124.328 275.529 126.37 272.09 126.852 269C128.144 260.709 127 251.391 127 243L127 136L170 136L170 226C175.071 223.369 183.226 217.394 185.397 211.91C186.669 208.696 186 204.391 186 201L186 180L186 106L229 106L229 178C241.293 173.271 252.993 162.334 264 155C267.637 152.577 274.54 149.829 276.397 145.671C277.636 142.895 277 138.963 277 136L277 116L277 45L21 45M327 128L328 129L327 128z"/>
<path style="fill:#593197; stroke:none;" d="M328 128C324.506 130.377 319.323 132.864 317.028 136.515C314.985 139.765 316 145.328 316 149L316 177L316 304L329 304L329 180L329 145C329 139.65 330.085 132.969 328 128z"/>
<path style="fill:#a991d5; stroke:none;" d="M325 129L324 131C325.263 130.029 325.392 130.306 325 129M321 132L320 134C321.263 133.029 321.392 133.306 321 132M317 135L318 136L317 135M315 136L315 304C316.769 299.785 316 294.536 316 290L316 261L316 174L316 149C316 144.74 316.661 139.959 315 136M301 147C302.695 154.12 302 161.719 302 169L302 206L302 326C303.769 321.785 303 316.536 303 312L303 285L303 189L303 159C303 155.11 304.112 149.719 301 147z"/>
<path style="fill:#593197; stroke:none;" d="M288 326L302 326L302 148C297.583 149.968 291.4 153.694 289.028 158.09C287.213 161.454 288 166.312 288 170L288 195L288 326z"/>
<path style="fill:#a991d5; stroke:none;" d="M298 149C296.814 150.186 296.472 150.584 296 152C297.548 150.738 297.808 150.806 298 149M293 153L292 155C293.263 154.029 293.392 154.306 293 153M288 157C286.223 163.012 287 169.761 287 176L287 211L287 326C288.981 321.28 288 315.08 288 310L288 276L288 196C288 183.506 289.913 169.259 288 157M276 166L277 167L276 166z"/>
<path style="fill:#593197; stroke:none;" d="M126 335C116.82 328.479 109.979 317.977 102 310C84.6966 292.702 65.3066 276.359 45 262.67C37.399 257.546 29.6496 251.167 21 248L21 350L277 350L277 167C269.794 170.212 263.788 176.719 258 182C249.271 189.964 240.542 197.793 232 205.961C204.468 232.287 179.015 259.915 155.576 290C147.704 300.104 140.129 310.464 133.487 321.424C130.786 325.881 127.591 330.007 126 335z"/>
<path style="fill:#a991d5; stroke:none;" d="M273 168C271.814 169.186 271.472 169.584 271 171C272.548 169.738 272.808 169.806 273 168M267 173L263 178C265.089 176.444 266.403 175.512 267 173M258 181L254 186C256.089 184.444 257.403 183.512 258 181M250 188L246 193C248.089 191.444 249.403 190.512 250 188M242 195C237.18 199.82 231.931 204.419 228 210C232.769 206.641 240.593 200.803 242 195M201 236C198.455 238.564 196.076 241.048 194 244C197.004 241.878 200.115 239.653 201 236M21 247L22 248L21 247M23 248C23.5451 249.635 23.3648 249.455 25 250C24.4549 248.365 24.6352 248.545 23 248M190 248L186 253C188.089 251.444 189.403 250.512 190 248M26 250L27 251L26 250M29 252L30 253L29 252M31 253C31.5451 254.635 31.3648 254.455 33 255C32.4549 253.365 32.6352 253.545 31 253M34 255C34.5451 256.635 34.3648 256.455 36 257C35.455 255.365 35.6352 255.545 34 255M37 257C37.5451 258.635 37.3648 258.455 39 259C38.4549 257.365 38.6352 257.545 37 257M182 257L179 261C180.756 259.623 181.54 259.106 182 257M40 259C40.5451 260.635 40.3648 260.455 42 261C41.4549 259.365 41.6352 259.545 40 259M43 261C43.5451 262.635 43.3648 262.455 45 263C44.4549 261.365 44.6352 261.545 43 261M47 264L48 265L47 264M176 264L173 268C174.756 266.623 175.54 266.106 176 264M50 266C50.5451 267.635 50.3648 267.455 52 268C51.4549 266.365 51.6352 266.545 50 266M54 269C54.5451 270.635 54.3648 270.455 56 271C55.4549 269.365 55.6352 269.545 54 269M171 270L168 274C169.756 272.623 170.54 272.106 171 270M58 272C58.5451 273.635 58.3648 273.455 60 274C59.4549 272.365 59.6352 272.545 58 272M63 276C63.5451 277.635 63.3648 277.455 65 278C64.4549 276.365 64.6352 276.545 63 276M165 277C163.814 278.186 163.472 278.584 163 280C164.548 278.738 164.808 278.806 165 277M67 279C68.1034 280.457 68.5434 280.897 70 282C68.8966 280.543 68.4567 280.103 67 279M162 281C160.814 282.186 160.472 282.584 160 284C161.548 282.738 161.808 282.806 162 281M73 284C74.1034 285.457 74.5434 285.897 76 287C74.8966 285.543 74.4566 285.103 73 284M158 286C156.814 287.186 156.472 287.584 156 289C157.548 287.738 157.808 287.806 158 286M79 289C80.1034 290.457 80.5434 290.897 82 292C80.8966 290.543 80.4566 290.103 79 289M155 290C153.814 291.186 153.472 291.584 153 293C154.548 291.738 154.808 291.806 155 290M86 295C87.7952 297.508 89.4925 299.205 92 301C90.2048 298.493 88.5075 296.795 86 295M151 295L150 297C151.263 296.029 151.392 296.306 151 295M148 299L149 300L148 299M145 303L146 304L145 303M98 306C99.5489 308.136 100.864 309.451 103 311C101.451 308.864 100.136 307.549 98 306M143 306L144 307L143 306M141 309L142 310L141 309M139 312L140 313L139 312M136 316L137 317L136 316M134 320L135 321L134 320M112 321C113.795 323.507 115.493 325.205 118 327C116.205 324.493 114.507 322.795 112 321M132 323L131 325C132.263 324.029 132.392 324.306 132 323M130 326L129 328C130.263 327.029 130.392 327.306 130 326M119 329C121.049 331.832 122.834 333.52 126 335C123.843 332.688 121.605 330.79 119 329M128 329L127 331C128.263 330.029 128.392 330.306 128 329M126 332L127 333L126 332z"/>
</svg>
